<svg xmlns="http://www.w3.org/2000/svg" width="1680" height="1000" viewBox="0 0 1680 1000">
<rect width="1680" height="1000" fill="#DFDED6"/>
<rect x="117" y="160" width="87" height="700" fill="#35507A" fill-opacity="0.10"/><rect x="237" y="160" width="87" height="700" fill="#35507A" fill-opacity="0.10"/><rect x="358" y="160" width="87" height="700" fill="#35507A" fill-opacity="0.10"/><rect x="479" y="160" width="87" height="700" fill="#35507A" fill-opacity="0.10"/><rect x="600" y="160" width="87" height="700" fill="#35507A" fill-opacity="0.10"/><rect x="721" y="160" width="87" height="700" fill="#35507A" fill-opacity="0.10"/><rect x="842" y="160" width="87" height="700" fill="#35507A" fill-opacity="0.10"/><rect x="963" y="160" width="87" height="700" fill="#35507A" fill-opacity="0.10"/><rect x="1084" y="160" width="87" height="700" fill="#35507A" fill-opacity="0.10"/><rect x="1205" y="160" width="87" height="700" fill="#35507A" fill-opacity="0.10"/><rect x="1326" y="160" width="87" height="700" fill="#35507A" fill-opacity="0.10"/><rect x="1447" y="160" width="87" height="700" fill="#35507A" fill-opacity="0.10"/><text x="117" y="100" font-family="Helvetica Neue, Arial, sans-serif" font-size="23" letter-spacing="3" fill="#14161A" opacity=".6">COMPONENT INVENTORY</text><rect x="117" y="200" width="907" height="300" fill="#ffffff" fill-opacity="0.62"/><rect x="117" y="200" width="907" height="300" fill="none" stroke="#14161A" stroke-width="2" stroke-opacity="0.55"/><line x1="117" y1="200" x2="1024" y2="500" stroke="#14161A" stroke-opacity="0.22"/><line x1="1024" y1="200" x2="117" y2="500" stroke="#14161A" stroke-opacity="0.22"/><rect x="1075" y="200" width="487" height="300" fill="#ffffff" fill-opacity="0.62"/><rect x="1075" y="200" width="487" height="300" fill="none" stroke="#14161A" stroke-width="2" stroke-opacity="0.55"/><line x1="1075" y1="200" x2="1562" y2="500" stroke="#14161A" stroke-opacity="0.22"/><line x1="1562" y1="200" x2="1075" y2="500" stroke="#14161A" stroke-opacity="0.22"/><rect x="117" y="540" width="453" height="240" fill="#ffffff" fill-opacity="0.62"/><rect x="117" y="540" width="453" height="240" fill="none" stroke="#14161A" stroke-width="2" stroke-opacity="0.55"/><line x1="117" y1="540" x2="570" y2="780" stroke="#14161A" stroke-opacity="0.22"/><line x1="570" y1="540" x2="117" y2="780" stroke="#14161A" stroke-opacity="0.22"/><rect x="621" y="540" width="940" height="240" fill="#ffffff" fill-opacity="0.62"/><rect x="621" y="540" width="940" height="240" fill="none" stroke="#14161A" stroke-width="2" stroke-opacity="0.55"/><line x1="621" y1="540" x2="1561" y2="780" stroke="#14161A" stroke-opacity="0.22"/><line x1="1561" y1="540" x2="621" y2="780" stroke="#14161A" stroke-opacity="0.22"/><line x1="117" y1="160" x2="1562" y2="160" stroke="#35507A" stroke-width="2" stroke-dasharray="7 7" stroke-opacity="0.75"/><line x1="117" y1="860" x2="1562" y2="860" stroke="#35507A" stroke-width="2" stroke-dasharray="7 7" stroke-opacity="0.75"/>
</svg>
