<svg xmlns="http://www.w3.org/2000/svg" width="1200" height="1560" viewBox="0 0 1200 1560">
<rect width="1200" height="1560" fill="#DBD2BF"/>
<text x="84" y="140" font-family="Helvetica Neue, Arial, sans-serif" font-size="26" letter-spacing="3" fill="#1E1B16" opacity=".6">SHELF / DETAIL / SEARCH</text><line x1="84" y1="187" x2="1116" y2="187" stroke="#1E1B16" stroke-opacity="0.38"/><g transform="translate(234,312)"><rect width="336" height="725" rx="26" fill="#ffffff"/><rect width="336" height="725" rx="26" fill="none" stroke="#1E1B16" stroke-opacity="0.29"/><rect x="33" y="21" width="53" height="5" rx="2" fill="#1E1B16" fill-opacity="0.44"/><rect x="33" y="65" width="154" height="15" fill="#1E1B16"/><circle cx="288" cy="71" r="13" fill="#B04A2C"/><rect x="33" y="116" width="268" height="159" rx="13" fill="#B04A2C" fill-opacity="0.23"/><rect x="53" y="159" width="114" height="11" rx="5" fill="#B04A2C"/><rect x="53" y="188" width="188" height="10" fill="#1E1B16" fill-opacity="0.80"/><rect x="33" y="304" width="268" height="61" rx="10" fill="#1E1B16" fill-opacity="0.14"/><rect x="50" y="317" width="43" height="43" rx="6" fill="#1E1B16" fill-opacity="0.29"/><rect x="110" y="321" width="134" height="8" fill="#1E1B16" fill-opacity="0.68"/><rect x="110" y="337" width="87" height="7" fill="#1E1B16" fill-opacity="0.35"/><rect x="33" y="383" width="268" height="61" rx="10" fill="#1E1B16" fill-opacity="0.14"/><rect x="50" y="396" width="43" height="43" rx="6" fill="#1E1B16" fill-opacity="0.29"/><rect x="110" y="400" width="134" height="8" fill="#1E1B16" fill-opacity="0.68"/><rect x="110" y="416" width="87" height="7" fill="#1E1B16" fill-opacity="0.35"/><rect x="33" y="463" width="268" height="61" rx="10" fill="#1E1B16" fill-opacity="0.14"/><rect x="50" y="476" width="43" height="43" rx="6" fill="#1E1B16" fill-opacity="0.29"/><rect x="110" y="480" width="134" height="8" fill="#1E1B16" fill-opacity="0.68"/><rect x="110" y="496" width="87" height="7" fill="#1E1B16" fill-opacity="0.35"/><rect x="33" y="543" width="268" height="61" rx="10" fill="#1E1B16" fill-opacity="0.14"/><rect x="50" y="556" width="43" height="43" rx="6" fill="#1E1B16" fill-opacity="0.29"/><rect x="110" y="560" width="134" height="8" fill="#1E1B16" fill-opacity="0.68"/><rect x="110" y="576" width="87" height="7" fill="#1E1B16" fill-opacity="0.35"/><line x1="0" y1="645" x2="336" y2="645" stroke="#1E1B16" stroke-opacity="0.23"/><rect x="47" y="670" width="23" height="23" rx="2" fill="#B04A2C"/><rect x="127" y="670" width="23" height="23" rx="2" fill="#1E1B16" fill-opacity="0.35"/><rect x="208" y="670" width="23" height="23" rx="2" fill="#1E1B16" fill-opacity="0.35"/><rect x="288" y="670" width="23" height="23" rx="2" fill="#1E1B16" fill-opacity="0.35"/></g><g transform="translate(630,374)"><rect width="336" height="725" rx="26" fill="#ffffff"/><rect width="336" height="725" rx="26" fill="none" stroke="#1E1B16" stroke-opacity="0.29"/><rect x="33" y="21" width="53" height="5" rx="2" fill="#1E1B16" fill-opacity="0.44"/><rect x="33" y="65" width="154" height="15" fill="#1E1B16"/><circle cx="288" cy="71" r="13" fill="#B04A2C"/><rect x="33" y="116" width="268" height="159" rx="13" fill="#B04A2C" fill-opacity="0.23"/><rect x="53" y="159" width="114" height="11" rx="5" fill="#B04A2C"/><rect x="53" y="188" width="188" height="10" fill="#1E1B16" fill-opacity="0.80"/><rect x="33" y="304" width="268" height="61" rx="10" fill="#1E1B16" fill-opacity="0.14"/><rect x="50" y="317" width="43" height="43" rx="6" fill="#1E1B16" fill-opacity="0.29"/><rect x="110" y="321" width="134" height="8" fill="#1E1B16" fill-opacity="0.68"/><rect x="110" y="337" width="87" height="7" fill="#1E1B16" fill-opacity="0.35"/><rect x="33" y="383" width="268" height="61" rx="10" fill="#1E1B16" fill-opacity="0.14"/><rect x="50" y="396" width="43" height="43" rx="6" fill="#1E1B16" fill-opacity="0.29"/><rect x="110" y="400" width="134" height="8" fill="#1E1B16" fill-opacity="0.68"/><rect x="110" y="416" width="87" height="7" fill="#1E1B16" fill-opacity="0.35"/><rect x="33" y="463" width="268" height="61" rx="10" fill="#1E1B16" fill-opacity="0.14"/><rect x="50" y="476" width="43" height="43" rx="6" fill="#1E1B16" fill-opacity="0.29"/><rect x="110" y="480" width="134" height="8" fill="#1E1B16" fill-opacity="0.68"/><rect x="110" y="496" width="87" height="7" fill="#1E1B16" fill-opacity="0.35"/><rect x="33" y="543" width="268" height="61" rx="10" fill="#1E1B16" fill-opacity="0.14"/><rect x="50" y="556" width="43" height="43" rx="6" fill="#1E1B16" fill-opacity="0.29"/><rect x="110" y="560" width="134" height="8" fill="#1E1B16" fill-opacity="0.68"/><rect x="110" y="576" width="87" height="7" fill="#1E1B16" fill-opacity="0.35"/><line x1="0" y1="645" x2="336" y2="645" stroke="#1E1B16" stroke-opacity="0.23"/><rect x="47" y="670" width="23" height="23" rx="2" fill="#B04A2C"/><rect x="127" y="670" width="23" height="23" rx="2" fill="#1E1B16" fill-opacity="0.35"/><rect x="208" y="670" width="23" height="23" rx="2" fill="#1E1B16" fill-opacity="0.35"/><rect x="288" y="670" width="23" height="23" rx="2" fill="#1E1B16" fill-opacity="0.35"/></g>
</svg>
